<svg width="48" height="49" viewBox="0 0 48 49" fill="none" xmlns="http://www.w3.org/2000/svg">
<mask id="mask0_458_1948" style="mask-type:luminance" maskUnits="userSpaceOnUse" x="0" y="0" width="48" height="49">
<path d="M0 0H48V48.1967H0V0Z" fill="white"/>
</mask>
<g mask="url(#mask0_458_1948)">
<path d="M0 24.0984C0 13.683 1.90735e-07 8.4778 2.7984 4.9257C3.41683 4.14087 4.12397 3.43083 4.9056 2.80987C8.4384 0 13.6272 0 24 0C34.3728 0 39.5568 0 43.0944 2.80987C43.8768 3.43161 44.5824 4.1401 45.2016 4.9257C48 8.47298 48 13.683 48 24.0984C48 34.5137 48 39.7189 45.2016 43.271C44.5832 44.0559 43.876 44.7659 43.0944 45.3869C39.5616 48.1967 34.3728 48.1967 24 48.1967C13.6272 48.1967 8.4432 48.1967 4.9056 45.3869C4.12397 44.7659 3.41683 44.0559 2.7984 43.271C1.90735e-07 39.7237 0 34.5137 0 24.0984Z" fill="#10482B"/>
</g>
<g clip-path="url(#clip0_458_1948)">
<path d="M10.4401 23.1523L11.3442 21.7454C11.3442 21.7454 10.3985 21.2277 9.72976 21.0419C5.86823 19.9689 1.52254 21.8626 2.18933 26.2592C2.28406 25.3598 3.57557 25.4344 4.31195 25.3799C4.46983 23.2499 6.39627 22.1443 8.69653 22.4488C9.81705 22.5971 10.4401 23.1523 10.4401 23.1523Z" fill="#7BAA44"/>
<path d="M11.6544 26.0824L11.667 25.2617H8.11523C8.11523 25.2617 10.3108 25.7893 11.6544 26.0824Z" fill="#7BAA44"/>
<path d="M13.4746 23.3273V26.1997L15.4119 26.2583C15.714 25.5299 16.5077 24.6758 17.4784 24.7928C17.692 24.8185 17.995 24.9686 17.995 24.9686L18.3825 23.3273C18.3825 23.3273 17.9561 23.1919 17.6721 23.1514C16.6671 23.0083 15.8834 23.7198 15.2376 24.3062L15.2182 24.3238L15.1536 23.3273H13.4746Z" fill="#7BAA44"/>
<path d="M20.3844 30.0211C20.7755 30.2596 21.2115 30.4276 21.6877 30.5182C20.9728 29.0088 20.8902 27.2882 21.676 25.7899C22.2836 24.631 23.3428 23.8324 24.5173 23.152C24.6849 23.0549 25.2917 22.6928 25.3921 22.6328C24.9042 22.7898 24.3711 23.0115 23.8716 22.9761C20.5621 22.7416 18.6952 24.2448 18.5566 27.2554C18.9426 26.6831 19.5449 25.7899 19.5449 25.7899C19.5449 25.7899 19.1741 26.8574 18.9637 27.5485C18.8941 27.777 18.7903 28.1347 18.7903 28.1347C18.8856 28.3799 19.007 28.6174 19.1575 28.8382C19.4929 29.3303 19.9049 29.7287 20.3844 30.0211Z" fill="#7BAA44"/>
<path d="M26.5843 24.9693C26.256 24.4273 25.4865 23.7383 25.4865 23.7383C25.4865 23.7383 24.7449 24.4156 24.5179 24.9693C24.2676 25.5797 24.105 26.676 24.9699 26.9624C25.3747 27.0965 25.8616 26.9737 26.1323 26.6693C26.4398 26.1792 26.4629 25.5205 26.5843 24.9693Z" fill="#7BAA44"/>
<path d="M24.0661 22.2726C24.0661 22.2726 23.4243 22.4229 23.0329 22.3313C21.988 22.0867 21.6973 21.0873 21.3539 20.2795L21.1602 19.752H21.8059C22.5522 19.752 23.4203 20.1037 23.4203 20.1037C23.4203 20.1037 24.0661 20.2795 24.3244 21.1588C24.3922 21.3898 24.5182 21.7451 24.5182 21.7451L24.1307 21.5106C24.1307 21.5106 23.8515 21.1548 23.6141 20.983C23.2876 20.7468 22.6454 20.5726 22.6454 20.5726C23.0329 20.983 23.9615 21.2528 24.0661 21.9795C24.0824 22.093 24.0661 22.2726 24.0661 22.2726Z" fill="#7BAA44"/>
<path d="M24.7757 21.8618C24.7757 21.8618 24.7135 21.5671 24.7757 21.3929C24.821 21.2659 24.8767 21.2034 24.9694 21.0998C25.1224 20.9289 25.4947 20.748 25.7444 20.748V21.0998C25.7444 21.0998 25.7592 21.5687 25.6152 21.7446C25.5189 21.8622 25.2923 21.9791 25.2923 21.9791L24.9694 22.1549L25.0986 21.686L25.2923 21.2756L24.7757 21.8618Z" fill="#7BAA44"/>
<path d="M38.6606 16.5862C38.6606 16.5862 38.0652 16.6311 37.6919 16.7034C36.6325 16.9086 35.0443 17.8172 35.0443 17.8172L34.3985 17.5827V17.0551L33.3653 17.2896L33.1716 16.5862L32.1383 16.9379L29.749 16.1172L28.9095 16.4103L32.4612 18.931C31.5394 19.3815 30.612 20.1158 29.5553 20.2206C28.9644 20.2793 27.1013 19.5172 27.1013 19.5172C27.1013 19.5172 26.7963 19.5517 26.1973 19.8689L27.1013 20.1034C28.4572 20.4727 29.8475 20.7577 31.2343 20.2793L33.2847 19.5172L36.3198 18.3904C37.1485 18.0494 37.9152 17.7473 38.5154 17.5241C39.2634 17.246 39.807 17.1724 39.807 17.1724C39.807 17.1724 40.0369 16.9691 39.8715 16.8206C39.7106 16.6761 39.3064 16.7034 39.3064 16.7034C39.1348 16.8368 38.5927 17.3574 38.3377 17.0551C38.1931 16.8836 38.6606 16.5862 38.6606 16.5862Z" fill="#7BAA44"/>
<path d="M5.14492 27.7824C4.89629 27.4903 4.78434 27.3026 4.62831 26.9617C4.36277 26.3816 4.28282 25.8939 4.31207 25.379C3.57569 25.4335 2.28418 25.3589 2.18945 26.2583C2.82407 30.4431 7.53426 31.7686 11.6026 29.4824L11.6545 26.0824C10.311 25.7893 8.11534 25.2617 8.11534 25.2617H7.53426V26.61H9.53615V28.4272C8.08013 29.201 6.19982 29.0218 5.14492 27.7824Z" fill="white"/>
<path d="M18.9637 27.5477C19.1741 26.8566 19.5449 25.7891 19.5449 25.7891C19.5449 25.7891 18.9426 26.6823 18.5566 27.2546C18.6016 27.5571 18.6783 27.8461 18.7903 28.1339C18.7903 28.1339 18.8941 27.7762 18.9637 27.5477Z" fill="white"/>
<path d="M13.4746 26.1992V30.244H15.4119V26.2578L13.4746 26.1992Z" fill="white"/>
<path d="M26.4552 22.3302C26.1233 22.409 25.9441 22.4747 25.6157 22.5646C25.5426 22.5847 25.4683 22.6074 25.3927 22.6317C25.2923 22.6917 24.6855 23.0538 24.5179 23.1508C23.3434 23.8313 22.2842 24.6299 21.6766 25.7888C20.8908 27.2871 20.9734 29.0076 21.6883 30.5171C21.9718 30.5712 22.2696 30.5978 22.5806 30.5957C25.7756 30.5738 28.1913 27.6216 26.5844 24.9681C26.463 25.5193 26.4399 26.1779 26.1324 26.6681C25.9195 28.1975 23.3797 28.9688 23.1618 26.9612C22.9734 25.5711 23.6548 24.4872 24.7762 23.6198C25.2873 23.2245 25.6234 23.0575 26.1969 22.7405C26.6405 22.4954 27.3593 22.1543 27.3593 22.1543C27.3593 22.1543 26.8045 22.2472 26.4552 22.3302Z" fill="white"/>
<path d="M27.1006 31.2408L26.584 32.4719C26.8637 32.5891 27.1554 32.7415 27.5526 32.8236C28.6492 33.0502 29.5432 32.7577 30.2003 31.9443C30.2003 31.9443 30.5242 31.4303 30.5877 31.065C30.7815 29.9512 30.5877 27.8311 30.5877 26.4339V24.3236C30.5877 24.3236 30.5871 23.4068 30.7815 22.8581C30.9092 22.4973 31.0079 22.2976 31.2335 21.9788C31.8279 21.139 33.4937 20.4546 33.4937 20.4546L33.6874 23.7374V24.5581L34.6401 24.2064L34.8498 23.327L35.3664 21.8615L36.1414 21.5098L35.6247 20.865L36.658 20.4546L36.0768 19.8684L36.1414 19.3408C37.546 18.696 38.789 18.2303 39.8062 17.1719C39.8062 17.1719 39.2626 17.2455 38.5147 17.5236C37.9145 17.7468 37.1477 18.0489 36.3191 18.3899C34.5725 19.1086 32.551 19.9999 31.2335 20.6891C31.2335 20.6891 30.2561 21.1868 29.6837 21.8615C29.2569 22.3645 29.1014 22.7168 28.9088 23.327C28.7888 23.7069 28.715 24.3236 28.715 24.3236V25.7891V28.1339C28.715 28.1339 28.7496 29.3616 28.715 29.8339C28.6803 30.3063 28.7861 31.1432 28.1338 31.3581C27.7515 31.484 27.1006 31.2408 27.1006 31.2408Z" fill="white"/>
<path d="M30.2017 20.8662C30.2017 20.8662 29.6368 21.5575 29.1039 21.7456C28.4046 21.9924 28.1518 21.6591 27.6187 21.2766C27.2966 21.0455 26.8438 20.6318 26.8438 20.6318C27.2166 20.3779 27.3649 20.5318 27.7478 20.749C27.7478 20.749 28.2083 20.9348 28.5227 20.9835C28.8707 21.0374 29.0751 21.0118 29.4268 20.9835C29.7324 20.9589 30.2017 20.8662 30.2017 20.8662Z" fill="#10482B"/>
<path fill-rule="evenodd" clip-rule="evenodd" d="M33.687 23.7379C33.687 23.7379 32.9255 24.6082 32.6538 25.262C32.5129 25.601 32.4334 25.8507 32.3845 26.1414C32.3606 26.2829 32.3439 26.4342 32.3309 26.6103C32.1586 28.934 34.1169 30.4038 36.4638 30.4207C37.7699 30.3964 39.0329 30.2048 39.8218 29.1896L38.8531 28.3103C38.8531 28.3103 38.1741 28.6975 37.6908 28.8379C36.2282 29.2627 34.6095 28.7667 34.2682 27.3724L40.3384 27.2551C40.3384 27.2551 40.3866 26.2709 40.2093 25.6724C40.0888 25.266 39.9967 25.0362 39.7572 24.6758C39.2937 23.9781 38.5569 23.3935 37.6908 23.1517C36.9827 22.9541 36.077 22.9657 35.366 23.1517C35.1814 23.2 35.0233 23.2538 34.8494 23.3276L34.6396 24.2069L33.687 24.5586V23.7379ZM34.2682 25.9655H38.3365C38.3365 25.3328 37.7632 24.7283 37.1096 24.5586C35.9112 24.2474 34.4777 24.7888 34.2682 25.9655Z" fill="#7BAA44"/>
<path d="M44.3422 21.5098V23.2684H46.5379V24.7925H44.3422C44.3422 24.7925 44.2131 27.6649 44.3422 28.2511C44.5101 29.0132 45.73 29.1604 46.215 28.7201L46.667 30.0684C46.667 30.0684 45.7022 30.4053 45.0526 30.4787C41.4203 30.8891 42.2758 26.9454 42.2758 24.7925H41.0488V23.2684H42.2758L42.3404 21.5098H44.3422Z" fill="#7BAA44"/>
<path d="M44.3429 24.793H46.5385V23.2689H44.3429V21.5103H42.341L42.2764 23.2689H41.0494V24.793H42.2764C42.2764 25.1864 42.2478 25.6073 42.2233 26.0827C42.2233 26.0827 42.928 25.8955 43.3211 25.6724C43.7873 25.4077 44.3429 24.793 44.3429 24.793Z" fill="white"/>
<path fill-rule="evenodd" clip-rule="evenodd" d="M33.6877 23.7379C33.6877 23.7379 32.9262 24.6081 32.6544 25.262C32.6544 25.262 32.4261 25.8645 32.3531 26.3758C32.3531 26.3758 34.7772 27.0799 36.3468 27.0793C37.9102 27.0786 40.3244 26.3758 40.3244 26.3758C40.3057 26.133 40.2713 25.8796 40.2099 25.6724C40.0894 25.2659 39.9974 25.0362 39.7579 24.6758C39.2944 23.9781 38.5575 23.3935 37.6914 23.1517C36.9834 22.954 36.0777 22.9657 35.3667 23.1517C35.1821 23.1999 35.024 23.2537 34.8501 23.3275C34.7682 23.6709 34.6403 24.2068 34.6403 24.2068L33.6877 24.5586V23.7379ZM38.3372 25.9655H34.2689C34.4784 24.7888 35.9118 24.2474 37.1102 24.5586C37.7639 24.7283 38.3372 25.3328 38.3372 25.9655Z" fill="white"/>
<path d="M19.811 29.5918C19.8792 29.6535 19.9493 29.7125 20.0212 29.7688C20.1377 29.86 20.2589 29.9441 20.3848 30.0208C20.3848 30.0208 20.1612 28.8739 20.1911 28.1344C20.2126 27.6038 20.2359 27.2996 20.3848 26.7862C20.5374 26.2599 20.966 25.4965 20.966 25.4965C20.5371 26.0589 20.1637 26.5127 19.8682 27.2551C19.5737 27.9951 19.4751 29.2355 19.4741 29.2482C19.5806 29.3705 19.693 29.4851 19.811 29.5918Z" fill="white"/>
</g>
<defs>
<clipPath id="clip0_458_1948">
<rect width="44.8163" height="17" fill="white" transform="translate(1.99219 16)"/>
</clipPath>
</defs>
</svg>
